<?xml version="1.0" encoding="utf-8"?>
<!-- Generator: Adobe Illustrator 12.0.0, SVG Export Plug-In . SVG Version: 6.00 Build 51448)  -->
<!DOCTYPE svg PUBLIC "-//W3C//DTD SVG 1.0//EN" "http://www.w3.org/TR/2001/REC-SVG-20010904/DTD/svg10.dtd" [
	<!ENTITY ns_svg "http://www.w3.org/2000/svg">
	<!ENTITY ns_xlink "http://www.w3.org/1999/xlink">
]>
<svg  version="1.0" id="Layer_1" xmlns="&ns_svg;" xmlns:xlink="&ns_xlink;" width="287.332" height="238.664"
	 viewBox="0 0 287.332 238.664" overflow="visible" enable-background="new 0 0 287.332 238.664" xml:space="preserve">
<path fill="#FF0000" d="M262.755,0c9.943,67.787,9.221,124.635-3.978,167.655c-17.13-8.854-33.099-21.436-48.276-36.577
	c5.71-18.101,10.107-38.982,12.576-63.021c-7.834,21.392-14.948,39.041-21.515,53.725c-12.389-13.414-24.276-28.44-35.876-44.415
	c5.628,14.898,17.867,33.571,32.407,52.002c-23.573,45.398-42.983,63.964-62.687,74.98c-28.336,15.859-69.872,17.627-97.058-18.661
	C20.622,162.022,16.9,119.03,47.017,91.374c18.23-16.74,46.094-24.672,80.801-19.336C89.768,49.709,59.488,57.034,36.985,72.85
	C15.474,88.034,3.997,108.638,0.924,132.59c-3.075,23.771,1.246,47.094,17.153,67.879c15.093,19.881,36.575,33.48,61.158,37.189
	c24.582,3.703,54.133-2.952,74.375-17.771c19.752-14.379,38.167-37.836,53.667-79.266c34.675,41.152,70.901,74.613,75.811,60.384
	C293.006,172.26,285.258,65.709,262.755,0L262.755,0z"/>
</svg>
